<?xml version="1.0" encoding="UTF-8"?>
<svg width="342px" height="512px" viewBox="0 0 342 512" version="1.1" xmlns="http://www.w3.org/2000/svg" xmlns:xlink="http://www.w3.org/1999/xlink">
    <title>apple</title>
    <g id="Page-1" stroke="none" stroke-width="1" fill="none" fill-rule="evenodd">
        <g id="apple" fill="#141B4D" fill-rule="nonzero">
            <path d="M306.011,324.343 C340.929,265.275 360.88,182.22 312.172,126.259 C297.576,109.209 278.543,96.535 257.183,89.642 C270.696,70.749 276.467,47.401 273.311,24.388 C272.708,20.186 269.108,17.066 264.863,17.066 C208.893,17.066 183.515,45.465 172.012,71.031 C162.941,39.322 143.477,0 102.73,0 C98.017,0 94.197,3.82 94.197,8.533 C94.197,13.246 98.017,17.066 102.73,17.066 C140.166,17.066 154.783,67.14 159.903,94.412 C144.492,88.053 127.93,84.962 111.263,85.333 C79.54,86.837 49.943,101.722 29.821,126.293 C-18.887,182.255 1.064,265.31 35.982,324.377 C45.954,342.698 60.039,358.456 77.13,370.414 L77.13,431.666 L66.096,420.632 C62.748,417.398 57.425,417.444 54.134,420.736 C50.842,424.028 50.796,429.35 54.03,432.698 L79.63,458.298 C82.066,460.729 85.723,461.459 88.906,460.15 C89.833,459.732 90.679,459.154 91.406,458.443 C91.483,458.366 91.594,458.341 91.671,458.264 L117.271,432.664 C120.505,429.316 120.459,423.993 117.167,420.702 C113.875,417.41 108.553,417.364 105.205,420.598 L94.197,431.666 L94.197,378.759 C103.575,382.053 113.441,383.743 123.381,383.76 C133.021,383.78 142.602,382.247 151.754,379.22 C158.632,376.962 165.122,373.661 170.997,369.432 C176.871,373.653 183.358,376.949 190.231,379.203 C208.954,385.333 229.165,385.186 247.797,378.785 L247.797,431.692 L236.763,420.658 C233.415,417.424 228.092,417.47 224.801,420.762 C221.509,424.054 221.463,429.376 224.697,432.724 L250.297,458.324 C252.733,460.755 256.39,461.485 259.573,460.176 C260.5,459.758 261.346,459.18 262.073,458.469 C262.15,458.392 262.261,458.367 262.338,458.29 L287.938,432.69 C291.172,429.342 291.126,424.019 287.834,420.728 C284.542,417.436 279.22,417.39 275.872,420.624 L264.864,431.666 L264.864,370.414 C281.958,358.447 296.044,342.677 306.011,324.343 Z M257.115,34.347 C257.607,53.191 251.091,71.547 238.828,85.863 C236.123,85.598 233.418,85.334 230.73,85.334 C213.912,84.944 197.201,88.096 181.68,94.584 C186.562,72.994 202.801,37.444 257.115,34.347 Z M256.33,324.267 C251.617,324.267 247.797,328.088 247.797,332.8 L247.797,360.431 C231.35,367.782 212.746,368.707 195.65,363.025 L195.676,363.025 C188.691,360.79 182.266,357.082 176.834,352.154 C173.559,349.108 168.487,349.108 165.212,352.154 C159.781,357.083 153.356,360.79 146.37,363.025 C129.279,368.719 110.674,367.806 94.223,360.465 L94.223,332.8 C94.223,328.087 90.403,324.267 85.69,324.267 C80.977,324.267 77.157,328.088 77.157,332.8 L77.157,349.013 C66.636,339.358 57.708,328.1 50.704,315.656 C18.824,261.7 -0.018,186.564 42.734,137.463 C59.708,116.754 84.54,104.049 111.265,102.4 C149.23,102.4 164.88,116.907 164.965,116.966 C165.05,117.026 165.067,117.026 165.119,117.068 C165.805,117.701 166.589,118.22 167.44,118.604 C167.56,118.655 167.653,118.766 167.773,118.809 C168.795,119.237 169.891,119.46 170.999,119.466 L171.357,119.466 C172.026,119.394 172.683,119.236 173.311,118.997 C173.625,118.941 173.936,118.867 174.241,118.775 C174.947,118.453 175.605,118.033 176.195,117.529 C176.461,117.383 176.717,117.221 176.963,117.043 C177.117,116.906 192.767,102.4 230.732,102.4 C257.471,104.043 282.317,116.752 299.297,137.472 C342.049,186.573 323.19,261.709 291.327,315.665 C284.32,328.107 275.389,339.362 264.865,349.013 L264.865,332.8 C264.864,328.087 261.043,324.267 256.33,324.267 Z" id="Shape"></path>
            <path d="M152.07,128.614 C139.608,121.762 125.458,118.59 111.264,119.466 C106.551,119.466 102.731,123.286 102.731,127.999 C102.731,132.712 106.551,136.532 111.264,136.532 C122.15,135.735 133.046,137.946 142.761,142.923 C145.317,144.586 148.567,144.759 151.285,143.377 C154.003,141.995 155.778,139.267 155.94,136.222 C156.101,133.178 154.626,130.277 152.07,128.614 Z" id="Path"></path>
            <path d="M68.435,159.881 C70.518,157.593 71.199,154.358 70.216,151.424 C69.233,148.491 66.739,146.319 63.698,145.749 C60.657,145.179 57.546,146.299 55.567,148.677 C18.78,190.934 36.512,258.16 65.372,306.979 C66.871,309.706 69.736,311.402 72.848,311.402 C75.96,311.402 78.826,309.709 80.326,306.983 C81.826,304.257 81.724,300.93 80.058,298.301 C54.227,254.592 37.612,195.285 68.435,159.881 Z" id="Path"></path>
            <path d="M190.538,471.799 L179.53,482.867 L179.53,401.067 C179.53,396.354 175.71,392.534 170.997,392.534 C166.284,392.534 162.464,396.355 162.464,401.067 L162.464,482.867 L151.43,471.833 C148.082,468.599 142.759,468.645 139.468,471.937 C136.176,475.229 136.13,480.551 139.364,483.899 L164.964,509.499 C167.4,511.93 171.057,512.66 174.24,511.351 C175.167,510.933 176.013,510.355 176.74,509.644 C176.817,509.567 176.928,509.542 177.005,509.465 L202.605,483.865 C205.839,480.517 205.793,475.194 202.501,471.903 C199.209,468.612 193.887,468.566 190.538,471.799 Z" id="Path"></path>
        </g>
    </g>
</svg>