<svg xmlns="http://www.w3.org/2000/svg" class="h-6 w-6 fill-current " viewBox="0 0 457 512"><polygon id="Path" points="457 400 457 272 449 272 449 32 433 32 433 272 425 272 425 400 409 448 457 448"/><polygon id="Path" points="425 272 385 272 385 32 369 32 369 272 329 272 329 400 345 448 409 448 425 400"/><polygon id="Path" points="329 272 321 272 321 32 305 32 305 272 297 272 297 400 297 448 345 448 329 400"/><polygon id="Path" points="136 40 128 40 128 0 112 0 112 40 104 40 104 64 136 64"/><polygon id="Path" transform="translate(377.000000, 480.000000) scale(1, -1) translate(-377.000000, -480.000000) " points="393 488 385 488 385 448 369 448 369 488 361 488 361 512 393 512"/><path d="M32,256 L32,400 L208.008,400 L208.008,256 L32,256 Z M184,376 L56,376 L56,280 L184,280 L184,376 Z" id="Shape"/><path d="M208,96 L32,96 L32,240 L208,240 L208,96 Z M192,223 L48,223 L48,112 L192,112 L192,223 Z" id="Shape"/><path d="M216,64 L24,64 C10.768,64 0,74.768 0,88 L0,408 C0,421.232 10.768,432 24,432 L216,432 C229.232,432 240,421.232 240,408 L240,88 C240,74.768 229.232,64 216,64 Z M224,400 C224,408.824 216.824,416 208,416 L32,416 C23.176,416 16,408.824 16,400 L16,96 C16,87.176 23.176,80 32,80 L208,80 C216.824,80 224,87.176 224,96 L224,400 Z" id="Shape"/><polygon id="Path" points="80 304 160 304 160 320 80 320"/><polygon id="Path" points="80 336 96 336 96 352 80 352"/><polygon id="Path" points="144 336 160 336 160 352 144 352"/><polygon id="Path" points="112 336 128 336 128 352 112 352"/></svg>