<svg xmlns="http://www.w3.org/2000/svg" class="h-6 w-6 fill-current " viewBox="0 0 420 512"><path d="M330,512 C357.57,512 380,489.57 380,462 L380,390.28 C391.639,386.152 400,375.037 400,362 L400,240 L410,240 C415.522,240 420,235.522 420,230 L420,190 C420,162.43 397.57,140 370,140 C342.43,140 320,162.43 320,190 L320,230 C320,235.522 324.478,240 330,240 L340,240 L340,362 C340,375.036 348.361,386.152 360,390.28 L360,462 C360,478.542 346.542,492 330,492 C313.458,492 300,478.542 300,462 L300,50 C300,22.43 277.57,0 250,0 L170,0 C145.854,0 125.652,17.205 121.006,40 L110,40 C104.478,40 100,44.478 100,50 L100,80 L30,80 C13.458,80 0,93.458 0,110 L0,482 C0,498.542 13.458,512 30,512 L230,512 C246.542,512 260,498.542 260,482 L260,110 C260,93.458 246.542,80 230,80 L160,80 L160,50 C160,44.478 155.522,40 150,40 L141.72,40 C145.848,28.361 156.963,20 170,20 L250,20 C266.542,20 280,33.458 280,50 L280,462 C280,489.57 302.43,512 330,512 Z M380,362 C380,367.514 375.514,372 370,372 C364.486,372 360,367.514 360,362 L360,280 L380,280 L380,362 Z M380,260 L360,260 L360,240 L380,240 L380,260 Z M340,220 L340,190 C340,173.458 353.458,160 370,160 C386.542,160 400,173.458 400,190 L400,220 L340,220 Z M120,60 L140,60 L140,80 L120,80 L120,60 Z M66.181,492 L76.181,472 L183.82,472 L193.82,492 L66.181,492 Z M230,100 C235.514,100 240,104.486 240,110 L240,240 L175,240 C169.478,240 165,244.478 165,250 C165,255.522 169.478,260 175,260 L240,260 L240,482 C240,487.514 235.514,492 230,492 L216.18,492 L198.944,457.528 C197.25,454.14 193.788,452 190,452 L70,452 C66.212,452 62.75,454.14 61.056,457.528 L43.82,492 L30,492 C24.486,492 20,487.514 20,482 L20,260 L85,260 C90.522,260 95,255.522 95,250 C95,244.478 90.522,240 85,240 L20,240 L20,110 C20,104.486 24.486,100 30,100 L230,100 Z" id="Shape"/><path d="M50,220 L210,220 C215.522,220 220,215.522 220,210 L220,130 C220,124.478 215.522,120 210,120 L50,120 C44.478,120 40,124.478 40,130 L40,210 C40,215.522 44.478,220 50,220 Z M200,140 L200,160 L176.181,160 L166.181,140 L200,140 Z M161.056,174.472 C162.75,177.86 166.212,180 170,180 L200,180 L200,200 L126.18,200 L150,152.36 L161.056,174.472 Z M60,140 L133.82,140 L110,187.64 L98.944,165.529 C97.25,162.14 93.788,160 90,160 L60,160 L60,140 Z M60,180 L83.819,180 L93.819,200 L60,200 L60,180 Z" id="Shape"/></svg>