<svg id="Capa_1" enable-background="new 0 0 511.601 511.601" height="512" viewBox="0 0 511.601 511.601" width="512" xmlns="http://www.w3.org/2000/svg"><g><path d="m264.395 199.698v20.772c0 7.811 6.354 14.165 14.165 14.165h2.887v41.196l-16.03 16.03c-1.406 1.407-2.196 3.314-2.196 5.303v16.626c0 4.142 3.357 7.5 7.5 7.5s7.5-3.358 7.5-7.5v-13.52l16.03-16.03c1.406-1.407 2.196-3.314 2.196-5.303v-44.302h2.886c7.811 0 14.165-6.354 14.165-14.165v-20.772c0-7.811-6.354-14.166-14.165-14.166h-20.773c-7.81 0-14.165 6.355-14.165 14.166zm15 .834h19.103v19.103h-19.103z"/><path d="m172.31 174.949c-7.811 0-14.165 6.354-14.165 14.165v25.28c0 7.811 6.354 14.166 14.165 14.166h25.28c7.811 0 14.165-6.354 14.165-14.166v-25.28c0-7.811-6.354-14.165-14.165-14.165zm24.445 38.611h-23.61v-23.61h23.61z"/><path d="m189.767 125.155v15.344c0 7.811 6.354 14.165 14.165 14.165h15.344c7.811 0 14.165-6.354 14.165-14.165v-15.344c0-7.811-6.354-14.165-14.165-14.165h-15.344c-7.811 0-14.165 6.354-14.165 14.165zm15 .835h13.674v13.674h-13.674z"/><path d="m73.606 272.043c0-7.811-6.354-14.165-14.166-14.165h-15.344c-7.811 0-14.165 6.354-14.165 14.165v15.344c0 7.811 6.354 14.165 14.165 14.165h15.344c7.811 0 14.166-6.354 14.166-14.165zm-15 14.509h-13.675v-13.674h13.674v13.674z"/><path d="m110.504 330.253h-25.147c-7.811 0-14.165 6.354-14.165 14.165v25.146c0 7.811 6.354 14.166 14.165 14.166h25.147c7.811 0 14.165-6.354 14.165-14.166v-25.146c0-7.81-6.355-14.165-14.165-14.165zm-.835 38.477h-23.477v-23.477h23.477z"/><path d="m430.521 208.484c0-6.865-.426-13.81-1.266-20.641-.506-4.111-4.26-7.032-8.359-6.528-4.111.505-7.034 4.248-6.529 8.359.766 6.226 1.154 12.555 1.154 18.81 0 42.282-16.903 81.6-47.596 110.711-21.241 20.146-38.308 45.284-49.612 72.948h-8.526v-41.99l33.58-33.58c1.406-1.406 2.196-3.314 2.196-5.303v-18.897c6.866-.077 12.431-5.68 12.431-12.565v-16.392c0-6.932-5.64-12.571-12.571-12.571h-16.393c-6.932 0-12.571 5.64-12.571 12.571v16.392c0 6.932 5.64 12.572 12.571 12.572h1.533v15.783l-33.58 33.58c-1.406 1.406-2.196 3.314-2.196 5.303v45.097h-16.567v-46.392c0-4.142-3.357-7.5-7.5-7.5s-7.5 3.358-7.5 7.5v46.392h-24.812v-93.236h2.886c7.811 0 14.165-6.354 14.165-14.165v-20.772c0-7.811-6.354-14.165-14.165-14.165h-20.772c-7.811 0-14.166 6.354-14.166 14.165v20.772c0 7.811 6.354 14.165 14.166 14.165h2.886v93.236h-15.884c-9.021-21.86-21.711-42.192-37.792-60.489-2.735-3.112-7.473-3.417-10.584-.682s-3.417 7.473-.682 10.584c14.179 16.133 25.526 33.94 33.813 53.03-8.754 4.122-14.83 13.025-14.83 23.325 0 13.789 10.886 25.081 24.515 25.737v10.695c0 9.491 6.1 17.58 14.584 20.565 3.044 20.727 20.939 36.692 42.498 36.692h7.781c21.559 0 39.454-15.965 42.498-36.692 8.484-2.985 14.584-11.073 14.584-20.565v-10.695c13.629-.656 24.515-11.948 24.515-25.737 0-10.313-6.092-19.226-14.865-23.341 10.49-24.423 25.816-46.593 44.688-64.493 33.71-31.971 52.274-75.154 52.274-121.593zm-99.061 57.363h11.535v11.535h-11.535zm-110.102-1.041h19.103v19.103h-19.103zm45.47 231.795h-7.781c-12.82 0-23.653-8.673-26.938-20.46h61.658c-3.287 11.787-14.119 20.46-26.939 20.46zm55.828-67.92h-24.729c-4.143 0-7.5 3.358-7.5 7.5s3.357 7.5 7.5 7.5h10.982v10.663c0 3.748-3.05 6.797-6.798 6.797h-78.35c-3.748 0-6.797-3.049-6.797-6.797v-10.663h49c4.143 0 7.5-3.358 7.5-7.5s-3.357-7.5-7.5-7.5h-62.747c-5.938 0-10.769-4.831-10.769-10.769 0-5.69 4.439-10.351 10.034-10.731.091 0 .184-.002.275-.005.171-.006.341-.017.51-.028l.049-.003h119.337l-.063.003c.163.011.326.021.49.028.098.004.195.005.292.006 5.602.372 10.05 5.037 10.05 10.732.003 5.937-4.828 10.767-10.766 10.767z"/><path d="m110.353 208.486c0-32.164 9.968-62.964 28.827-89.071 2.426-3.357 1.67-8.046-1.688-10.471-3.357-2.426-8.046-1.67-10.471 1.688-20.718 28.679-31.668 62.517-31.667 97.854 0 40.324 14.543 79.297 40.95 109.738 1.483 1.71 3.57 2.585 5.669 2.585 1.742 0 3.492-.604 4.911-1.834 3.129-2.714 3.465-7.451.751-10.58-24.042-27.714-37.282-63.196-37.282-99.909z"/><path d="m223.839 60.749c.607 0 1.226-.075 1.842-.23 12.249-3.093 24.929-4.672 37.605-4.619 7.8.018 15.637.63 23.292 1.82 4.101.636 7.927-2.166 8.563-6.259s-2.166-7.927-6.259-8.563c-8.404-1.307-17.005-1.979-25.563-1.998-13.978-.059-27.852 1.677-41.311 5.075-4.016 1.014-6.449 5.092-5.436 9.108.859 3.4 3.913 5.666 7.267 5.666z"/><path d="m158.458 102.745h29.237c7.811 0 14.165-6.354 14.165-14.165v-29.238c0-7.811-6.354-14.166-14.165-14.166h-29.237c-7.811 0-14.165 6.354-14.165 14.166v29.238c0 7.81 6.355 14.165 14.165 14.165zm.835-42.568h27.567v27.568h-27.567z"/><path d="m426.306 356.183h-32.375c-7.811 0-14.165 6.354-14.165 14.165v32.375c0 7.811 6.354 14.166 14.165 14.166h32.375c7.811 0 14.165-6.354 14.165-14.166v-32.375c0-7.81-6.354-14.165-14.165-14.165zm-.835 45.706h-30.705v-30.706h30.705z"/><path d="m465.826 292.583h-19.046c-7.811 0-14.165 6.354-14.165 14.165v19.045c0 7.811 6.354 14.165 14.165 14.165h19.046c7.811 0 14.165-6.354 14.165-14.165v-19.045c0-7.81-6.355-14.165-14.165-14.165zm-.835 32.376h-17.376v-17.375h17.376z"/><path d="m96.901 46.504h17.634c7.811 0 14.165-6.354 14.165-14.166v-17.633c0-7.811-6.354-14.165-14.165-14.165h-17.634c-7.811 0-14.165 6.354-14.165 14.165v17.634c0 7.811 6.355 14.165 14.165 14.165zm.835-30.964h15.964v15.964h-15.964z"/><path d="m50.879 106.875h13.729c7.811 0 14.166-6.354 14.166-14.165v-13.729c0-7.811-6.354-14.165-14.166-14.165h-13.729c-7.811 0-14.165 6.354-14.165 14.165v13.729c0 7.811 6.354 14.165 14.165 14.165zm.835-27.059h12.06v12.06h-12.06z"/><path d="m427.242 46.927h-58.837c-4.143 0-7.5 3.358-7.5 7.5v58.837c0 4.142 3.357 7.5 7.5 7.5h58.837c4.143 0 7.5-3.358 7.5-7.5v-58.837c0-4.142-3.357-7.5-7.5-7.5zm-7.5 58.837h-43.837v-43.837h43.837z"/><path d="m474.17 91.346c4.143 0 7.5-3.358 7.5-7.5s-3.357-7.5-7.5-7.5h-9.428v-20.756h9.428c4.143 0 7.5-3.358 7.5-7.5s-3.357-7.5-7.5-7.5h-9.428v-.338c0-12.861-10.463-23.324-23.324-23.324h-.339v-9.428c0-4.142-3.357-7.5-7.5-7.5s-7.5 3.358-7.5 7.5v9.427h-20.755v-9.427c0-4.142-3.357-7.5-7.5-7.5s-7.5 3.358-7.5 7.5v9.427h-20.756v-9.427c0-4.142-3.357-7.5-7.5-7.5s-7.5 3.358-7.5 7.5v9.427h-.339c-12.861 0-23.324 10.463-23.324 23.324v.339h-9.427c-4.143 0-7.5 3.358-7.5 7.5s3.357 7.5 7.5 7.5h9.427v20.755h-9.427c-4.143 0-7.5 3.358-7.5 7.5s3.357 7.5 7.5 7.5h9.427v20.756h-9.427c-4.143 0-7.5 3.358-7.5 7.5s3.357 7.5 7.5 7.5h9.427v.338c0 12.861 10.463 23.324 23.324 23.324h.339v9.427c0 4.142 3.357 7.5 7.5 7.5s7.5-3.358 7.5-7.5v-9.427h20.756v9.427c0 4.142 3.357 7.5 7.5 7.5s7.5-3.358 7.5-7.5v-9.427h20.756v9.427c0 4.142 3.357 7.5 7.5 7.5s7.5-3.358 7.5-7.5v-9.427h.338c12.861 0 23.324-10.463 23.324-23.324v-.339h9.428c4.143 0 7.5-3.358 7.5-7.5s-3.357-7.5-7.5-7.5h-9.428v-20.754zm-24.428 36.094c0 4.59-3.734 8.324-8.324 8.324h-87.188c-4.59 0-8.324-3.734-8.324-8.324v-87.189c0-4.59 3.734-8.324 8.324-8.324h87.188c4.59 0 8.324 3.734 8.324 8.324z"/></g></svg>