<?xml version="1.0" encoding="UTF-8" standalone="no"?>
<!DOCTYPE svg PUBLIC "-//W3C//DTD SVG 1.1//EN" "http://www.w3.org/Graphics/SVG/1.1/DTD/svg11.dtd">
<svg width="100%" height="100%" viewBox="0 0 1140 386" version="1.1" xmlns="http://www.w3.org/2000/svg" xmlns:xlink="http://www.w3.org/1999/xlink" xml:space="preserve" xmlns:serif="http://www.serif.com/" style="fill-rule:evenodd;clip-rule:evenodd;stroke-linejoin:round;stroke-miterlimit:1.41421;">
    <g transform="matrix(1,0,0,1,-2464,-3153)">
        <g id="OPEN-Color-NoBG-Light-Side" transform="matrix(1.92858,0,0,0.653302,2464.94,3153.07)">
            <rect x="0" y="0" width="590.551" height="590.551" style="fill:none;"/>
            <g>
                <g transform="matrix(1.41963,0,0,4.19081,-1681.6,-870.283)">
                    <g>
                        <g transform="matrix(2,0,0,1,-1334.76,-12742.4)">
                            <path d="M1316.71,12975L1334.76,13037.5L1298.66,13037.5L1316.71,12975Z" style="fill:rgb(58,130,227);"/>
                        </g>
                        <g transform="matrix(1,0,0,1,0,-12742.4)">
                            <path d="M1288.24,12987L1252.17,13049.5L1324.31,13049.5L1326.87,13053.9L1235.8,13053.9L1281.34,12975L1288.24,12987Z" style="fill:rgb(58,130,227);"/>
                        </g>
                        <g transform="matrix(1,0,0,1,-17.2782,-12742.4)">
                            <path d="M1288.24,12987L1242.74,13065.8L1335.75,13065.8L1338.31,13070.2L1226.37,13070.2L1281.34,12975L1288.24,12987Z" style="fill:rgb(58,130,227);"/>
                        </g>
                    </g>
                </g>
                <g transform="matrix(12.4231,0,-0.0721963,36.6735,-9816.49,-204274)">
                    <path d="M843.454,5582.77C843.206,5582.77 842.998,5582.74 842.831,5582.67L842.831,5581.91C843.044,5581.96 843.229,5581.99 843.385,5581.99C843.881,5581.99 844.129,5581.68 844.129,5581.05L844.129,5575.67L845.04,5575.67L845.04,5581.02C845.04,5581.59 844.906,5582.02 844.636,5582.32C844.367,5582.62 843.973,5582.77 843.454,5582.77Z" style="fill:rgb(14,22,76);fill-rule:nonzero;"/>
                    <path d="M849.922,5581.22L849.368,5579.68L847.246,5579.68L846.703,5581.22L845.746,5581.22L847.823,5575.65L848.81,5575.65L850.886,5581.22L849.922,5581.22ZM849.129,5578.9L848.609,5577.39C848.571,5577.28 848.518,5577.13 848.451,5576.91C848.384,5576.69 848.338,5576.53 848.313,5576.43C848.244,5576.74 848.144,5577.08 848.013,5577.45L847.512,5578.9L849.129,5578.9Z" style="fill:rgb(14,22,76);fill-rule:nonzero;"/>
                    <path d="M854.018,5581.22L852.408,5576.59L852.378,5576.59C852.421,5577.27 852.442,5577.92 852.442,5578.52L852.442,5581.22L851.619,5581.22L851.619,5575.67L852.898,5575.67L854.439,5580.09L854.462,5580.09L856.049,5575.67L857.332,5575.67L857.332,5581.22L856.458,5581.22L856.458,5578.48C856.458,5578.2 856.465,5577.84 856.479,5577.4C856.493,5576.95 856.505,5576.69 856.515,5576.59L856.485,5576.59L854.819,5581.22L854.018,5581.22Z" style="fill:rgb(14,22,76);fill-rule:nonzero;"/>
                    <path d="M861.192,5581.22L859.583,5576.59L859.552,5576.59C859.595,5577.27 859.617,5577.92 859.617,5578.52L859.617,5581.22L858.793,5581.22L858.793,5575.67L860.072,5575.67L861.613,5580.09L861.636,5580.09L863.223,5575.67L864.506,5575.67L864.506,5581.22L863.633,5581.22L863.633,5578.48C863.633,5578.2 863.64,5577.84 863.654,5577.4C863.668,5576.95 863.68,5576.69 863.69,5576.59L863.659,5576.59L861.993,5581.22L861.192,5581.22Z" style="fill:rgb(14,22,76);fill-rule:nonzero;"/>
                </g>
            </g>
        </g>
    </g>
</svg>
