<svg xmlns="http://www.w3.org/2000/svg" class="h-6 w-6 fill-current " viewBox="0 0 512 512"><path d="M415.54688,116.30371C372.40576,98.05176,315.74463,88,256,88S139.59424,98.05176,96.45312,116.30371C44.57227,138.25391,16,170.81885,16,208A239.76329,239.76329,0,0,0,86.22559,377.53906,157.58743,157.58743,0,0,0,198.39209,424H313.60791a157.58743,157.58743,0,0,0,112.1665-46.46094A239.76329,239.76329,0,0,0,496,208C496,170.81885,467.42773,138.25391,415.54688,116.30371Zm-312.8594,14.73535C143.90088,113.60254,198.34814,104,256,104s112.09912,9.60254,153.3125,27.03906C454.896,150.32471,480,177.65674,480,208s-25.104,57.67529-70.6875,76.96094C368.09912,302.39746,313.65186,312,256,312s-112.09912-9.60254-153.31252-27.03906C57.104,265.67529,32,238.34326,32,208S57.104,150.32471,102.68748,131.03906ZM462.9668,293.63086a222.66238,222.66238,0,0,1-48.50586,72.59473A141.69562,141.69562,0,0,1,313.60791,408H198.39209a141.69562,141.69562,0,0,1-100.853-41.77441,224.00795,224.00795,0,0,1-59.08087-104.813c13.58,14.76269,33.094,27.74841,57.99493,38.28369C139.59424,317.94824,196.25537,328,256,328s116.40576-10.05176,159.54688-28.30371c24.90087-10.53528,44.415-23.521,57.99487-38.28369A224.21334,224.21334,0,0,1,462.9668,293.63086Z"></path></svg>