<svg xmlns="http://www.w3.org/2000/svg" class="h-6 w-6 fill-current " viewBox="0 0 512 512"><path d="M392 0H120C53.832 0 0 53.832 0 120v272c0 66.168 53.832 120 120 120h272c66.168 0 120-53.832 120-120V120C512 53.832 458.168 0 392 0zm80 392c0 44.112-35.888 80-80 80H120c-44.112 0-80-35.888-80-80V120c0-44.112 35.888-80 80-80h272c44.112 0 80 35.888 80 80zM276 108v297c0 11.046-8.954 20-20 20s-20-8.954-20-20V108c0-11.046 8.954-20 20-20s20 8.954 20 20zm-77 70v227c0 11.046-8.954 20-20 20s-20-8.954-20-20V178c0-11.046 8.954-20 20-20s20 8.954 20 20zm-78 143v84c0 11.046-8.954 20-20 20s-20-8.954-20-20v-84c0-11.046 8.954-20 20-20s20 8.954 20 20zm233-83v167c0 11.046-8.954 20-20 20s-20-8.954-20-20V238c0-11.046 8.954-20 20-20s20 8.954 20 20zm78 123v44c0 11.046-8.954 20-20 20s-20-8.954-20-20v-44c0-11.046 8.954-20 20-20s20 8.954 20 20z"></path></svg>