<svg xmlns="http://www.w3.org/2000/svg" class="h-6 w-6 fill-current " viewBox="0 0 512 512"><path d="M256,0C146.352,0,35.355,30.812,35.355,89.698c0,58.887,110.997,89.698,220.645,89.698s220.645-30.812,220.645-89.698 C476.645,30.812,365.648,0,256,0z M256,140.113c-112.503,0-181.361-32.645-181.361-50.414c0-17.776,68.852-50.414,181.361-50.414 s181.361,32.638,181.361,50.414C437.361,107.474,368.502,140.113,256,140.113z"></path><path d="M256,332.604c-109.648,0-220.645,30.812-220.645,89.698C35.355,481.188,146.352,512,256,512 s220.645-30.812,220.645-89.698C476.645,363.415,365.648,332.604,256,332.604z M256,472.716 c-112.503,0-181.361-32.638-181.361-50.414c0-17.776,68.852-50.414,181.361-50.414s181.361,32.638,181.361,50.414 S368.502,472.716,256,472.716z"></path><rect x="35.356" y="94.281" width="39.284" height="328.021"></rect><rect x="437.361" y="94.281" width="39.284" height="328.021"></rect></svg>