<svg xmlns="http://www.w3.org/2000/svg" class="h-6 w-6 fill-current " viewBox="0 0 512 512"><path d="M256 60c13.976 0 27.672 1.21 41.003 3.505A44.712 44.712 0 00301 45c0-24.813-20.187-45-45-45s-45 20.187-45 45a44.728 44.728 0 003.997 18.505A241.605 241.605 0 01256 60zM256 90C139.655 90 45 184.655 45 301s94.655 211 211 211 211-94.654 211-211S372.346 90 256 90zm86 348.802H170c-8.284 0-15-6.716-15-15s6.716-15 15-15h172c8.284 0 15 6.716 15 15s-6.716 15-15 15zm-76.292-99.979c-.463 7.974-7.075 14.13-14.961 14.131-.293 0-.586-.008-.883-.026-8.271-.48-14.585-7.574-14.105-15.844a14.998 14.998 0 00-16.018-15.833c-8.271.576-15.431-5.655-16.008-13.919s5.655-15.431 13.919-16.008c7.842-.55 15.582.98 22.517 4.293l62.639-62.639c5.857-5.858 15.355-5.858 21.213 0s5.858 15.355 0 21.213l-62.644 62.645a44.993 44.993 0 014.331 21.987zm140.51-23.022h-.02c-.027 0-.053-.004-.08-.004l-17.118.006c-8.284 0-15-6.716-15-15s6.716-15 15-15h1.338c-2.928-26.019-13.273-49.827-28.867-69.258l-.819.819c-2.929 2.929-6.768 4.394-10.606 4.394s-7.678-1.464-10.606-4.394c-5.858-5.858-5.858-15.355 0-21.213l.797-.797c-19.442-15.536-43.242-25.827-69.236-28.713v1.162c0 8.284-6.716 15-15 15s-15-6.716-15-15v-1.163c-26.005 2.884-49.806 13.17-69.247 28.703l.808.808c5.858 5.858 5.858 15.355 0 21.213-2.929 2.929-6.768 4.394-10.606 4.394s-7.678-1.464-10.606-4.394l-.83-.83c-15.592 19.432-25.932 43.243-28.857 69.269H123c8.284 0 15 6.716 15 15s-6.716 15-15 15c0 0-16.406.198-17.198.198-8.284 0-15-6.716-15-15 0-45.437 18.441-86.646 48.229-116.542.102-.108.191-.223.297-.328.126-.126.264-.235.393-.356 29.875-29.636 70.974-47.972 116.279-47.972 45.112 0 86.071 18.207 115.924 47.651.252.221.508.436.749.677.228.228.431.47.641.709 29.531 29.82 47.825 70.788 47.885 115.942.01 8.283-6.697 15.008-14.981 15.019z"></path></svg>