<svg xmlns="http://www.w3.org/2000/svg" class="h-6 w-6 fill-current " viewBox="0 -50 433.996 433"><path d="M145.176 223.844l62.254-70.352-97.09-50.367-37.645 99.367zm0 0"></path><path d="M59.895 215.402a7.986 7.986 0 01-4.903-4.117 7.986 7.986 0 01-.316-6.39l41.57-109.727-85.062-53.531L0 232.609l78.66 69.016 55.043-64.484zm0 0M250.043 52.809L191.52.496c-13.508 6.895-51.075 25.52-72.247 30.55-.53.13-1.074.2-1.62.216L28.84 33.844l81.183 51.09 105.98 54.984zm0 0M323.48 152.129l35.114-88.59-93.727-4.715-36.097 92.38 22.25 60.655zm0 0M338.777 156.957l59.606 147.05 35.613-62.534-63.902-163.52zm0 0M153.844 238.191L95.03 307.09l183.305 25.687-61.016-166.32zm0 0M256.86 227.781l38.757 105.649 90.469-17.164-59.246-146.168zm0 0"></path></svg>