<svg xmlns="http://www.w3.org/2000/svg" class="h-6 w-6 fill-current " viewBox="0 0 46.164 46.164"><path d="M45.153 40.657l-4.03-24.075a4.707 4.707 0 00-4.646-3.929h-6.055a8.404 8.404 0 001.116-4.196C31.538 3.794 27.745 0 23.081 0c-4.663 0-8.457 3.794-8.457 8.457 0 1.526.406 2.959 1.116 4.196H9.685a4.708 4.708 0 00-4.646 3.931L1.01 40.662a4.722 4.722 0 004.647 5.502h34.852a4.722 4.722 0 004.644-5.507zM23.082 4.927a3.535 3.535 0 013.53 3.531 3.534 3.534 0 01-3.53 3.53c-1.947 0-3.531-1.584-3.531-3.531s1.584-3.53 3.531-3.53z"></path></svg>