<svg xmlns="http://www.w3.org/2000/svg" class="h-6 w-6 fill-current " viewBox="0 0 512.002 512.002"><path d="M502.002 54.001h-448c-5.523 0-10 4.477-10 10v49.987c0 5.523 4.477 10 10 10s10-4.477 10-10V74.001h61v33c0 5.523 4.477 10 10 10s10-4.477 10-10v-33h41v33c0 5.523 4.477 10 10 10s10-4.477 10-10v-33h41V405.26c0 5.523 4.477 10 10 10s10-4.477 10-10V74.001h41v288.741c0 5.523 4.477 10 10 10s10-4.477 10-10V74.001h41V405.26c0 5.523 4.477 10 10 10s10-4.477 10-10V74.001h42v288.741c0 5.523 4.477 10 10 10s10-4.477 10-10V74.001h41v364h-286v-33.259c0-5.523-4.477-10-10-10s-10 4.477-10 10v33.259h-41v-33.259c0-5.523-4.477-10-10-10s-10 4.477-10 10v33.259h-61v-40.012c0-5.523-4.477-10-10-10s-10 4.477-10 10v50.012c0 5.523 4.477 10 10 10h448c5.523 0 10-4.477 10-10v-384c0-5.523-4.477-10-10-10z"></path><path d="M219.488 248.923l-20.105-20.106c-3.905-3.905-10.237-3.905-14.142 0-3.905 3.905-3.906 10.237 0 14.142l3.036 3.037h-3.646a65.127 65.127 0 00-29.499 7.089c-12.771 6.525-28.023 6.525-40.794 0-18.47-9.435-40.522-9.435-58.992 0-12.771 6.524-28.022 6.524-40.794 0a10 10 0 00-13.455 4.356c-2.513 4.918-.562 10.942 4.356 13.455 18.47 9.435 40.522 9.434 58.992 0 12.771-6.524 28.023-6.524 40.795 0a64.847 64.847 0 0029.496 7.076 64.85 64.85 0 0029.496-7.076c6.306-3.221 13.387-4.898 20.52-4.899h3.523l-3.033 3.033c-3.906 3.903-3.906 10.235-.001 14.14 1.953 1.953 4.512 2.929 7.071 2.929s5.119-.976 7.071-2.929l20.105-20.105c3.905-3.905 3.905-10.237 0-14.142zM219.49 329.216l-20.197-20.197c-3.905-3.906-10.237-3.905-14.142 0-3.905 3.905-3.906 10.237 0 14.142l3.128 3.128h-3.646a65.127 65.127 0 00-29.499 7.089c-12.771 6.525-28.023 6.524-40.794 0-18.47-9.435-40.522-9.435-58.992 0-12.771 6.524-28.022 6.524-40.794 0-4.92-2.514-10.942-.563-13.455 4.356-2.513 4.918-.562 10.942 4.356 13.455 18.47 9.435 40.522 9.434 58.992 0 12.769-6.527 28.021-6.527 40.793-.002a64.847 64.847 0 0029.496 7.076 64.85 64.85 0 0029.496-7.076c6.306-3.221 13.387-4.885 20.52-4.899h3.523l-3.124 3.124c-3.905 3.905-3.905 10.237 0 14.143a9.968 9.968 0 007.071 2.929 9.966 9.966 0 007.071-2.929l20.197-20.197c3.905-3.905 3.905-10.237 0-14.142zM219.489 168.222l-19.608-19.608c-3.905-3.905-10.237-3.905-14.143 0-3.906 3.905-3.905 10.237 0 14.143l2.539 2.539h-3.645a65.14 65.14 0 00-29.5 7.088c-12.772 6.525-28.023 6.524-40.794 0-18.469-9.435-40.522-9.435-58.992 0-12.772 6.524-28.021 6.525-40.794 0-4.92-2.513-10.942-.563-13.455 4.356s-.563 10.94 4.356 13.453c18.469 9.435 40.521 9.436 58.992 0 12.772-6.524 28.023-6.524 40.795 0a64.835 64.835 0 0029.496 7.077 64.851 64.851 0 0029.496-7.077 45.055 45.055 0 0120.421-4.899H188.275l-2.536 2.536c-3.905 3.905-3.905 10.237 0 14.142 1.953 1.953 4.512 2.929 7.071 2.929s5.119-.977 7.071-2.929l19.608-19.608c3.905-3.905 3.905-10.237 0-14.142zM448.072 398.191c-1.86-1.86-4.44-2.93-7.07-2.93s-5.21 1.07-7.07 2.93-2.93 4.44-2.93 7.07 1.07 5.21 2.93 7.07c1.86 1.86 4.44 2.93 7.07 2.93s5.21-1.07 7.07-2.93 2.93-4.44 2.93-7.07-1.07-5.21-2.93-7.07zM325.072 398.191c-1.86-1.86-4.44-2.93-7.07-2.93s-5.21 1.07-7.07 2.93-2.93 4.44-2.93 7.07 1.07 5.21 2.93 7.07c1.86 1.86 4.44 2.93 7.07 2.93s5.21-1.07 7.07-2.93 2.93-4.44 2.93-7.07-1.07-5.21-2.93-7.07z"></path></svg>