<svg xmlns="http://www.w3.org/2000/svg" class="h-6 w-6 fill-current " viewBox="0 0 512 512"><path d="M482 209h-35v-82c0-16.542-13.458-30-30-30h-52.573c-12.021 0-23.321 4.681-31.82 13.18L313.787 129h-83.574l-18.82-18.82c-8.499-8.5-19.799-13.18-31.819-13.18H95c-16.542 0-30 13.458-30 30v82H30c-16.542 0-30 13.458-30 30v161c0 8.284 6.716 15 15 15s15-6.716 15-15V239h35v82c0 16.542 13.458 30 30 30h84.574c12.02 0 23.32-4.681 31.819-13.18l18.82-18.82h83.574l18.819 18.82c8.499 8.5 19.8 13.18 31.82 13.18H417c16.542 0 30-13.458 30-30v-82h35v161c0 8.284 6.716 15 15 15s15-6.716 15-15V239c0-16.542-13.458-30-30-30zm-243-50h66v130h-66zM95 127h42v194H95zm84.574 194H167V127h12.574c4.006 0 7.773 1.56 10.606 4.393l18.82 18.82v147.574l-18.82 18.82A14.901 14.901 0 01179.574 321zM417 321h-52.573c-4.007 0-7.774-1.56-10.607-4.393L335 297.787V150.213l18.819-18.82A14.904 14.904 0 01364.426 127H417z"></path></svg>