<svg xmlns="http://www.w3.org/2000/svg" class="h-6 w-6 fill-current " viewBox="0 0 512 512"><path d="M61 270c41.355 0 75-33.645 75-75v-45h30v105c0 8.284 6.716 15 15 15h120c8.284 0 15-6.716 15-15V135c0-8.284-6.716-15-15-15h-45V87.42c17.459-6.192 30-22.865 30-42.42 0-24.813-20.187-45-45-45-19.555 0-36.228 12.542-42.42 30H181c-41.355 0-75 33.645-75 75v90c0 24.813-20.187 45-45 45-8.284 0-15 6.716-15 15s6.716 15 15 15zM181 60h17.58c4.527 12.764 14.656 22.893 27.42 27.42V120h-90v-15c0-24.813 20.187-45 45-45zM361 150h-15v90h15c8.27 0 15 6.73 15 15v30c0 8.28 6.72 15 15 15h60c8.28 0 15-6.72 15-15v-30c0-57.9-47.1-105-105-105zM451 482H286V300h-90v182H61c-8.284 0-15 6.716-15 15s6.716 15 15 15h390c8.284 0 15-6.716 15-15s-6.716-15-15-15z"></path><path d="M433.989 337.499a14.997 14.997 0 00-25.978 0l-25.997 45.019A44.998 44.998 0 00376 405c0 24.813 20.187 45 45 45s45-20.187 45-45c0-7.896-2.079-15.67-6.014-22.482z"></path></svg>