<svg xmlns="http://www.w3.org/2000/svg" class="h-6 w-6 fill-current " viewBox="0 0 512.002 512.002"><path d="M92.122 172.731a9.955 9.955 0 004.949-1.318l42.129-24.054c4.796-2.738 6.464-8.846 3.726-13.643-2.738-4.796-8.845-6.464-13.643-3.726l-42.129 24.054c-4.796 2.738-6.464 8.846-3.726 13.643a9.998 9.998 0 008.694 5.044zM87.205 75.756l42.098 24.106a10 10 0 0013.648-3.709c2.744-4.793 1.083-10.903-3.709-13.647L97.144 58.4c-4.794-2.744-10.903-1.084-13.647 3.709-2.745 4.793-1.084 10.902 3.708 13.647z"></path><circle cx="420.281" cy="349.27" r="10"></circle><circle cx="420.17" cy="208.69" r="10"></circle><circle cx="338" cy="61.5" r="10"></circle><path d="M506.969 340.501l-76.856-44.009.026-42.791c.01-2.67-1.03-5.18-2.92-7.07s-4.4-2.94-7.08-2.94c-5.51 0-9.99 4.49-9.99 10l-.03 42.564-72.531 41.412-71.531-40.954.053-82.214 76.91-43.908c3.11-1.78 5.04-5.11 5.04-8.69l-.03-55.41c-.01-5.51-4.49-9.99-10.01-9.99-5.51 0-10 4.49-9.99 10l.03 49.6-71.832 41.012-71.997-41.227.056-87.875a10 10 0 00-5.031-8.684L97.173 12.323a9.994 9.994 0 00-9.928-.006l-82.144 46.9a10.003 10.003 0 00-5.042 8.678L0 161.797a10 10 0 005.031 8.684l76.852 44.007-.056 87.876a10 10 0 005.031 8.684l76.303 43.693-.057 89.25a10 10 0 005.031 8.684l82.083 47.003a9.989 9.989 0 004.969 1.322c1.71 0 3.422-.438 4.958-1.316l82.144-46.9a10.003 10.003 0 005.042-8.678l.057-88.551 72.918-41.634L492 354.976V452c0 5.523 4.477 10 10 10s10-4.477 10-10V349.178a9.997 9.997 0 00-5.031-8.677zM20.056 73.708l72.14-41.188 72.087 41.278-.052 81.849-72.535 41.413-71.692-41.052zm81.826 141.019l72.535-41.414 71.693 41.052-.052 82.301-72.14 41.188-72.087-41.279zm225.451 223.566l-72.14 41.188-72.087-41.278.052-82.3 72.14-41.188 72.087 41.278z"></path><path d="M292.386 412.185l-42.129 24.054c-4.796 2.738-6.464 8.846-3.726 13.643a9.995 9.995 0 0013.642 3.725l42.129-24.054c4.796-2.738 6.464-8.846 3.726-13.643-2.738-4.795-8.844-6.464-13.642-3.725zM246.599 344.302c-2.744 4.793-1.083 10.903 3.709 13.647l42.098 24.106a10 10 0 0013.648-3.709c2.744-4.793 1.083-10.903-3.709-13.647l-42.098-24.106c-4.795-2.743-10.904-1.083-13.648 3.709zM213.154 363.325h-.006c-5.52 0-9.997 4.473-10 9.994l-.031 47.492c-.003 5.523 4.471 10.003 9.994 10.006h.006c5.52 0 9.997-4.473 10-9.994l.031-47.492c.003-5.522-4.471-10.002-9.994-10.006zM467.34 364.7l-3.04-1.74a9.965 9.965 0 00-4.96-1.33c-3.58 0-6.91 1.93-8.69 5.04a9.977 9.977 0 001.72 12.15l-.03 61.04c0 5.52 4.49 10.01 10 10.01s10-4.48 10.01-10c0 0-.01 0-.01-.01l.04-66.48c0-3.58-1.93-6.9-5.04-8.68z"></path></svg>