<svg xmlns="http://www.w3.org/2000/svg" class="h-6 w-6 fill-current " viewBox="0 0 480 480"><path d="M88 136c-26.51 0-48 21.49-48 48 .029 26.498 21.502 47.971 48 48 26.51 0 48-21.49 48-48s-21.49-48-48-48zm0 80c-17.673 0-32-14.327-32-32 .019-17.665 14.335-31.981 32-32 17.673 0 32 14.327 32 32s-14.327 32-32 32zM216 48c-35.346 0-64 28.654-64 64 .04 35.329 28.671 63.96 64 64 35.346 0 64-28.654 64-64 0-35.346-28.654-64-64-64zm0 112c-26.51 0-48-21.49-48-48 .029-26.498 21.502-47.971 48-48 26.51 0 48 21.49 48 48s-21.49 48-48 48zM280 288c-22.091 0-40 17.909-40 40s17.909 40 40 40 40-17.909 40-40c-.026-22.081-17.919-39.974-40-40zm0 64c-13.255 0-24-10.745-24-24s10.745-24 24-24 24 10.745 24 24c-.014 13.249-10.751 23.986-24 24zM160 280c-39.764 0-72 32.235-72 72 0 39.764 32.236 72 72 72 39.765 0 72-32.236 72-72-.045-39.746-32.254-71.955-72-72zm0 128c-30.928 0-56-25.072-56-56s25.072-56 56-56 56 25.072 56 56c-.036 30.913-25.087 55.964-56 56zM256 392c-17.673 0-32 14.327-32 32 0 17.673 14.327 32 32 32 17.673 0 32-14.327 32-32-.019-17.665-14.335-31.981-32-32zm0 48c-8.837 0-16-7.163-16-16s7.163-16 16-16 16 7.163 16 16c-.01 8.832-7.168 15.99-16 16zM376 272c-26.51 0-48 21.49-48 48s21.49 48 48 48 48-21.49 48-48c-.029-26.498-21.502-47.971-48-48zm0 80c-17.673 0-32-14.327-32-32 0-17.673 14.327-32 32-32 17.673 0 32 14.327 32 32-.019 17.665-14.335 31.981-32 32z"></path><path d="M240 0C107.452 0 0 107.452 0 240s107.452 240 240 240 240-107.452 240-240C479.85 107.514 372.486.15 240 0zm104 64c0 13.255-10.745 24-24 24s-24-10.745-24-24 10.745-24 24-24c13.249.014 23.986 10.751 24 24zm-232 8c8.837 0 16 7.163 16 16s-7.163 16-16 16-16-7.163-16-16c.01-8.832 7.168-15.99 16-16zm128 392c-123.635.077-223.923-100.087-224-223.722A223.86 223.86 0 0180.515 82.904 31.7 31.7 0 0080 88c-.021 17.673 14.288 32.017 31.961 32.039S143.978 105.751 144 88.078c.021-17.529-14.063-31.812-31.591-32.036a223.576 223.576 0 01194.76-29.74c-20.912 7.095-32.112 29.8-25.016 50.711 7.095 20.912 29.8 32.112 50.711 25.016 20.912-7.095 32.112-29.8 25.016-50.711a39.894 39.894 0 00-.821-2.204c105.457 64.617 138.564 202.489 73.946 307.946C390.285 423.516 317.94 464.021 240 464z"></path><path d="M72 264c-13.255 0-24 10.745-24 24s10.745 24 24 24c13.249-.014 23.986-10.751 24-24 0-13.255-10.745-24-24-24zm0 32a8 8 0 118-8 8.008 8.008 0 01-8 8zM176 192c-22.091 0-40 17.909-40 40 .026 22.081 17.919 39.974 40 40 22.091 0 40-17.909 40-40s-17.909-40-40-40zm0 64c-13.255 0-24-10.745-24-24 .014-13.249 10.751-23.986 24-24 13.255 0 24 10.745 24 24s-10.745 24-24 24zM280 176c-26.498.029-47.971 21.502-48 48 0 26.51 21.49 48 48 48s48-21.49 48-48-21.49-48-48-48zm0 80c-17.673 0-32-14.327-32-32s14.327-32 32-32c17.665.019 31.981 14.335 32 32 0 17.673-14.327 32-32 32zM392 152c-30.913.036-55.964 25.087-56 56 0 30.928 25.072 56 56 56s56-25.072 56-56-25.072-56-56-56zm0 96c-22.091 0-40-17.909-40-40s17.909-40 40-40c22.081.026 39.974 17.919 40 40 0 22.091-17.909 40-40 40zM384 96c-13.249.014-23.986 10.751-24 24 0 13.255 10.745 24 24 24s24-10.745 24-24-10.745-24-24-24zm0 32a8 8 0 010-16 8.008 8.008 0 018 8 8 8 0 01-8 8z"></path></svg>