<svg xmlns="http://www.w3.org/2000/svg" class="h-6 w-6 fill-current " viewBox="0 0 24 24"><path d="M12 16c-3.309 0-6-2.722-6-6.067C6 5.807 11.243.449 11.466.223a.773.773 0 011.067 0C12.757.449 18 5.807 18 9.933 18 13.278 15.309 16 12 16zM16.25 21h-2.5a.75.75 0 010-1.5h2.5a.75.75 0 010 1.5z"></path><path d="M16.25 23a.75.75 0 01-.75-.75v-4.5a.75.75 0 011.5 0v4.5a.75.75 0 01-.75.75zM13.75 23a.75.75 0 01-.75-.75v-4.5a.75.75 0 011.5 0v4.5a.75.75 0 01-.75.75zM8.75 24a.75.75 0 01-.75-.75v-4.5a.75.75 0 01.75-.75H10c1.103 0 2 .897 2 2s-.897 2-2 2h-.5v1.25a.75.75 0 01-.75.75zm.75-3.5h.5a.5.5 0 000-1h-.5z"></path></svg>