<svg xmlns="http://www.w3.org/2000/svg" class="h-6 w-6 fill-current " viewBox="0 0 511.994 511.994"><path d="M391.011 324.343c34.918-59.068 54.869-142.123 6.161-198.084a121.509 121.509 0 00-54.989-36.617 90.931 90.931 0 0016.128-65.254 8.535 8.535 0 00-8.448-7.322c-55.97 0-81.348 28.399-92.851 53.965C247.941 39.322 228.477 0 187.73 0c-4.713 0-8.533 3.82-8.533 8.533s3.82 8.533 8.533 8.533c37.436 0 52.053 50.074 57.173 77.346a120.487 120.487 0 00-48.64-9.079 112.13 112.13 0 00-81.442 40.96c-48.708 55.962-28.757 139.017 6.161 198.084a134.89 134.89 0 0041.148 46.037v61.252l-11.034-11.034a8.533 8.533 0 00-11.962.104 8.533 8.533 0 00-.104 11.962l25.6 25.6a8.535 8.535 0 009.276 1.852 8.677 8.677 0 002.5-1.707c.077-.077.188-.102.265-.179l25.6-25.6a8.533 8.533 0 00-.104-11.962 8.533 8.533 0 00-11.962-.104l-11.008 11.068v-52.907a88.519 88.519 0 0029.184 5.001 89.765 89.765 0 0028.373-4.54 70.667 70.667 0 0019.243-9.788 70.735 70.735 0 0019.234 9.771 90.503 90.503 0 0057.566-.418v52.907l-11.034-11.034a8.533 8.533 0 00-11.962.104 8.533 8.533 0 00-.104 11.962l25.6 25.6a8.535 8.535 0 009.276 1.852 8.677 8.677 0 002.5-1.707c.077-.077.188-.102.265-.179l25.6-25.6a8.533 8.533 0 00-.104-11.962 8.533 8.533 0 00-11.962-.104l-11.008 11.042v-61.252a134.877 134.877 0 0041.147-46.071zM342.115 34.347a76.133 76.133 0 01-18.287 51.516c-2.705-.265-5.41-.529-8.098-.529a119.967 119.967 0 00-49.05 9.25c4.882-21.59 21.121-57.14 75.435-60.237zm-.785 289.92a8.533 8.533 0 00-8.533 8.533v27.631a72.082 72.082 0 01-52.147 2.594h.026a51.322 51.322 0 01-18.842-10.871 8.533 8.533 0 00-11.622 0 51.292 51.292 0 01-18.842 10.871 72.07 72.07 0 01-52.147-2.56V332.8a8.533 8.533 0 00-17.066 0v16.213a135.437 135.437 0 01-26.453-33.357c-31.88-53.956-50.722-129.092-7.97-178.193a96.277 96.277 0 0168.531-35.063c37.965 0 53.615 14.507 53.7 14.566.085.06.102.06.154.102a8.7 8.7 0 002.321 1.536c.12.051.213.162.333.205a8.47 8.47 0 003.226.657h.358a7.86 7.86 0 001.954-.469 8.22 8.22 0 00.93-.222 8.335 8.335 0 001.954-1.246c.266-.146.522-.308.768-.486.154-.137 15.804-14.643 53.769-14.643a96.282 96.282 0 0168.565 35.072c42.752 49.101 23.893 124.237-7.97 178.193a135.391 135.391 0 01-26.462 33.348V332.8a8.535 8.535 0 00-8.535-8.533z"></path><path d="M237.07 128.614a75.091 75.091 0 00-40.806-9.148c-4.713 0-8.533 3.82-8.533 8.533s3.82 8.533 8.533 8.533a59.545 59.545 0 0131.497 6.391 8.537 8.537 0 0013.179-6.701 8.54 8.54 0 00-3.87-7.608zM153.435 159.881a8.534 8.534 0 10-12.868-11.204c-36.787 42.257-19.055 109.483 9.805 158.302a8.534 8.534 0 1014.686-8.678c-25.831-43.709-42.446-103.016-11.623-138.42zM275.538 471.799l-11.008 11.068v-81.8a8.533 8.533 0 00-17.066 0v81.8l-11.034-11.034a8.533 8.533 0 00-11.962.104 8.533 8.533 0 00-.104 11.962l25.6 25.6a8.535 8.535 0 009.276 1.852 8.677 8.677 0 002.5-1.707c.077-.077.188-.102.265-.179l25.6-25.6a8.533 8.533 0 00-.104-11.962 8.536 8.536 0 00-11.963-.104z"></path></svg>