<svg xmlns="http://www.w3.org/2000/svg" class="h-6 w-6 fill-current " viewBox="0 0 512 512"><rect x="64" y="304" width="32" height="32"></rect><rect x="64" y="240" width="32" height="32"></rect><path d="M256,0C146.544,0,64,41.264,64,96v112h32v-57.504C129.824,175.904,187.664,192,256,192s126.176-16.096,160-41.504V416 c0,30.224-68.416,64-160,64S96,446.224,96,416v-48H64v48c0,54.736,82.544,96,192,96s192-41.264,192-96V96 C448,41.264,365.456,0,256,0z M256,160c-91.584,0-160-33.776-160-64s68.416-64,160-64s160,33.776,160,64S347.584,160,256,160z"></path></svg>