<svg xmlns="http://www.w3.org/2000/svg" class="h-6 w-6 fill-current " viewBox="0 0 512 512"><path d="m437.698 161.927-19.092-19.092 57.983-57.983-84.852-84.852-57.983 57.982-19.092-19.092-239.709 239.71 19.092 19.092-76.368 76.367 31.82 31.82-49.497 49.498 21.213 21.213 49.497-49.497 31.82 31.82 76.367-76.368 19.092 19.092 197.282-197.283 30.498 30.498-113.843 113.844 21.213 21.213 135.058-135.057-51.711-51.711zm-45.961-119.501 42.427 42.427-36.77 36.77-42.427-42.427zm-289.207 374.06-42.426-42.426 55.154-55.155 42.427 42.427zm14.85-137.886 197.282-197.283 80.61 80.61-197.282 197.283z"></path></svg>