<svg xmlns="http://www.w3.org/2000/svg" class="h-6 w-6 fill-current " viewBox="0 0 512 512"><path d="M412.069 30.54a49.735 49.735 0 00-10.72-15.89A49.8 49.8 0 00366 0h-65.311c-5.51 0-10 4.49-10 10s4.49 10 10 10H366c16.51.03 29.97 13.49 30 30v132.499H116V50c.03-16.51 13.49-29.97 30-30h64.689c5.511 0 10-4.49 10-10s-4.489-10-10-10H146c-6.75 0-13.3 1.33-19.46 3.93a49.823 49.823 0 00-15.891 10.721 49.757 49.757 0 00-10.72 15.89C97.319 36.7 96 43.25 96 50v157.19c0 14.76 3.68 29.449 10.649 42.46a90.313 90.313 0 0029.431 32.42l87.42 58.286V472c0 2.164.702 4.27 2 6l22.5 30a10.002 10.002 0 0016 0l22.5-30a9.999 9.999 0 002-6V340.356l87.42-58.286a90.285 90.285 0 0029.43-32.42c6.97-13.011 10.65-27.7 10.65-42.46V50c0-6.75-1.32-13.3-3.931-19.46zM396 207.19a69.956 69.956 0 01-6.892 30.309H266v-35h130zm-150-4.691v35H122.891A69.955 69.955 0 01116 207.19v-4.69h130zm10 282.834l-12.5-16.666V350.342a50.026 50.026 0 0025 0v118.325zm16.64-158.445a29.92 29.92 0 01-16.64 5.04c-5.94 0-11.7-1.75-16.641-5.04 0 0-99.026-66.486-102.033-69.389h237.347c-3.006 2.904-102.033 69.389-102.033 69.389z"></path><circle cx="255.689" cy="10" r="10"></circle><path d="M276 156.001c5.522 0 10-4.478 10-10v-34h35v34c0 5.522 4.478 10 10 10s10-4.478 10-10v-88c0-5.522-4.478-10-10-10s-10 4.478-10 10v34h-35v-34c0-5.522-4.478-10-10-10s-10 4.478-10 10v88c0 5.523 4.478 10 10 10zM181 49.002c-5.323 0-9.663 4.163-9.97 9.409-.018.158-.03.343-.03.591v86c0 5.522 4.478 10 10 10s10-4.478 10-10v-26.051a4421.6 4421.6 0 0117.049-.059c20.927 0 37.951-15.677 37.951-34.945s-17.024-34.945-37.951-34.945zm45 34.945c0 8.102-8.221 14.945-17.951 14.945-3.893 0-11.061.029-17.049.058V69.002h17.049c9.73 0 17.951 6.843 17.951 14.945z"></path></svg>